<svg width="329" height="328" viewBox="0 0 329 328" fill="none" xmlns="http://www.w3.org/2000/svg"><path fill-rule="evenodd" clip-rule="evenodd" d="M133.638 78.435c-12.089 2.033-22.651 8.925-27.323 17.83-1.387 2.644-1.778 3.042-3.819 3.888-13.626 5.647-24.154 20.486-24.184 34.083-.005 2.761-.175 3.751-.718 4.202-14.43 11.976-14.048 41.561.713 55.228l2.657 2.46-.374 3.695c-1.59 15.686 10.06 31.432 25.27 34.156l3.778.675c.489.087 1.789 1.396 2.889 2.911 12.221 16.825 39.134 16.507 50.242-.593l1.652-2.542 1.815 2.807c10.775 16.662 37.09 17.071 48.99.762 2.166-2.969 2.293-3.062 4.567-3.346 16.399-2.049 28.701-16.607 28.218-33.394l-.151-5.229 2.609-2.48c14.239-13.535 15.077-37.67 1.847-53.157l-2.021-2.365-.159-4.59c-.377-10.911-5.887-20.906-15.551-28.209-2.668-2.016-9.227-5.492-10.363-5.492-.316 0-1.402-1.65-2.415-3.667-10.848-21.606-44.781-24.408-55.949-4.62l-1.445 2.561-.938-1.846c-5.186-10.212-17.382-15.823-29.837-13.728m10.563 12.41c4.559 1.706 8.16 5.47 9.781 10.223l.985 2.889.13 58.444c.134 60.684.086 62.545-1.719 66.642-2.69 6.104-10.901 10.121-18.263 8.936-21.282-3.428-21.264-31.661.021-31.26 7.05.132 8.956-1.092 8.94-5.74-.026-7.518-14.681-9.023-24.388-2.505-7.277 4.887-12.494 14.264-12.494 22.458 0 1.816-.056 1.809-4.233-.523-8.782-4.902-13.107-15.461-9.415-22.98 6.038-12.295 11.545-16.359 22.79-16.82 9.264-.38 14.658-2.993 18.896-9.152 8.774-12.753-1.219-31.287-16.863-31.276-8.422.005-9.061 10.051-.737 11.59 5.889 1.089 9.299 4.55 9.244 9.383-.06 5.347-2.95 7.069-12.571 7.493-11.731.516-18.128 4.103-26.478 14.846l-1.366 1.758-2.067-2.634c-6.699-8.536-7.78-18.595-3.092-28.771 1.873-4.065 1.72-4.01 3.772-1.334 7.814 10.191 17.009 11.694 17.009 2.78 0-3.044.527-2.352-6.369-8.346-8.844-7.687-7.837-19.076 2.612-29.545 5.341-5.351 5.951-5.63 6.383-2.926 1.847 11.545 14.218 20.114 25.62 17.746 8.095-1.682 15.432-12.098 12.531-17.788-2.907-5.7-11.666-3.888-11.666 2.413 0 1.966-2.597 4.222-4.859 4.222-7.84 0-13.15-10.773-9.238-18.74 4.255-8.665 18.502-14.7 27.104-11.483m54.649.858c15.432 6.47 16.809 18.288 2.391 20.533-8.963 1.395-11.73 8.537-4.713 12.166 5.458 2.822 21.567-4.483 25.145-11.402l.655-1.266 2.544 1.291c6.945 3.526 12.4 11.306 13.664 19.487l.291 1.889h-1.777c-12.483 0-21.317 7.654-23.226 20.124-1.611 10.516-5.584 14.638-14.878 15.434-4.586.393-5.97 1.044-7.047 3.313-2.374 5.002 1.623 9.468 8.017 8.958 13.018-1.039 22.972-9.855 24.897-22.051 1.401-8.872 2.046-10.166 6.072-12.179 10.671-5.333 19.36 3.423 18.904 19.047l-.171 5.854-2.053 4.195c-1.129 2.307-2.644 4.884-3.367 5.727l-1.314 1.533-2.74-2.93c-4.975-5.317-9.91-5.836-12.262-1.289-1.468 2.839.269 8.009 3.048 9.076 1.087.417 3.686 4.738 4.726 7.855 2.927 8.775-1.755 18.879-10.972 23.679-4.402 2.293-4.422 2.286-4.783-1.698-1.714-18.919-20.307-29.907-31.562-18.652-6.188 6.188 1.595 14.432 8.333 8.827 3.462-2.88 8.746.274 10.756 6.419 6.554 20.038-23.385 32.049-32.411 13.002l-1.379-2.91-.135-35.334c-.094-24.406.013-35.842.345-36.98 1.412-4.838 6.804-6.566 12.085-3.871 5.883 3.001 11.697-3.837 7.412-8.717-3.367-3.835-14.192-6.095-19.151-3.999-1.322.559-1.175-31.753.163-35.714 3.295-9.758 13.929-13.846 24.493-9.417" fill="#000"/><rect x="279" y="156" width="50" height="17" rx="8.5" fill="#000"/><rect y="156" width="50" height="17" rx="8.5" fill="#000"/><rect x="238" y="77.355" width="50" height="17" rx="8.5" transform="rotate(-45 238 77.355)" fill="#000"/><rect x="250.021" y="238" width="50" height="17" rx="8.5" transform="rotate(45 250.021 238)" fill="#000"/><rect x="52.021" y="42" width="50" height="17" rx="8.5" transform="rotate(45 52.02 42)" fill="#000"/><rect x="43" y="274.355" width="50" height="17" rx="8.5" transform="rotate(-45 43 274.355)" fill="#000"/><rect x="155" y="50" width="50" height="17" rx="8.5" transform="rotate(-90 155 50)" fill="#000"/><rect x="155" y="328" width="50" height="17" rx="8.5" transform="rotate(-90 155 328)" fill="#000"/></svg>